<?xml version="1.0" ?><svg enable-background="new 0 0 515.91 728.5" height="512" id="Layer_1" version="1.1" viewBox="0 0 512.00003 512" width="512" xml:space="preserve" xmlns="http://www.w3.org/2000/svg" xmlns:cc="http://creativecommons.org/ns#" xmlns:dc="http://purl.org/dc/elements/1.1/" xmlns:inkscape="http://www.inkscape.org/namespaces/inkscape" xmlns:rdf="http://www.w3.org/1999/02/22-rdf-syntax-ns#" xmlns:sodipodi="http://sodipodi.sourceforge.net/DTD/sodipodi-0.dtd" xmlns:svg="http://www.w3.org/2000/svg"><defs id="defs7"/><g id="g6983" style="fill:#79b150;fill-opacity:1;stroke:none" transform="translate(1.5e-5,0)"><rect height="512" id="rect2984" rx="64" ry="64" style="fill:#79b150;fill-opacity:1;fill-rule:nonzero;stroke:none" width="512" x="0" y="0"/><g id="g3372" style="fill:#79b150;fill-opacity:1;stroke:none" transform="matrix(15.99685,0,0,15.99685,-5338.7915,-6028.4756)"><g id="g3368" style="fill:#79b150;fill-opacity:1;stroke:none" transform="translate(0.44642857,-0.04464286)"><path d="m 355.84375,380.40625 c -0.0699,0.0404 -0.0811,0.0614 -0.0625,0.0312 -0.67912,1.14393 -0.69662,2.65289 -1,4 a 0.4982215,0.4982215 0 0 1 0,0.0312 c -0.005,0.0197 0.005,0.0429 0,0.0625 -0.14726,1.44619 -0.62399,2.92107 -0.28125,4.3125 a 0.4982215,0.4982215 0 0 1 0.0312,0.0937 c 0.003,0.0101 -0.003,0.0212 0,0.0312 0.005,0.008 -0.005,0.0237 0,0.0312 0.006,0.009 0.0253,-0.008 0.0312,0 0.0731,0.10058 0.16238,0.1759 0.21875,0.1875 0.0403,0.008 0.11021,0.004 0.25,-0.0937 0.15127,-0.1053 0.23683,-0.31627 0.28125,-0.59375 a 0.4982215,0.4982215 0 0 1 0.0625,-0.0937 0.4982215,0.4982215 0 0 1 0,-0.0312 0.4982215,0.4982215 0 0 1 0.0312,-0.0937 0.4982215,0.4982215 0 0 1 0.0312,-0.0312 c 0.59834,-2.38691 1.00327,-4.89182 0.84375,-7.34375 -0.0204,-0.12189 -0.0428,-0.2068 -0.15625,-0.34375 -0.0753,-0.0907 -0.13704,-0.14279 -0.15625,-0.15625 -0.0192,-0.0135 0.007,-0.004 -0.0625,0 a 0.4982215,0.4982215 0 0 1 -0.0312,0 c -0.0257,0.003 -0.0158,-6.1e-4 -0.0312,0 z" id="path3366" style="fill:#79b150;fill-opacity:1;stroke:none"/><path d="m 361.84375,381.84375 c -1.03636,0.50365 -1.56686,1.70537 -2.28125,2.6875 a 0.46681363,0.46681363 0 0 1 -0.0312,0.0937 0.46681363,0.46681363 0 0 1 -0.0312,0.0625 c -0.90569,1.60511 -2.06123,3.20738 -2.1875,5.0625 -7.1e-4,0.0105 6.5e-4,0.0208 0,0.0312 0.0138,0.27995 0.17412,0.43198 0.34375,0.46875 0.16658,0.036 0.47447,-0.0594 0.59375,-0.25 a 0.46681363,0.46681363 0 0 1 0.0312,-0.0312 0.46681363,0.46681363 0 0 1 0,-0.0312 0.46681363,0.46681363 0 0 1 0,-0.0312 c 1.646,-2.26173 2.88416,-4.92489 3.90625,-7.53125 a 0.46681363,0.46681363 0 0 1 0,-0.0312 c 0.0707,-0.17113 0.0941,-0.21493 0.0312,-0.34375 -0.0185,-0.0381 -0.21237,-0.16871 -0.3125,-0.15625 -0.0163,0.007 -0.0465,-0.008 -0.0625,0 z" id="path3364" style="fill:#79b150;fill-opacity:1;stroke:none" transform="translate(-0.49107143,-0.26785714)"/></g><path d="m 345.66985,382.2774 c -0.16726,0.0311 -0.4161,0.1809 -0.59375,0.25 -0.62832,0.23837 -0.975,0.77698 -1.125,1.40625 -0.15274,0.64382 -0.10183,1.36084 0,2.09375 0.10181,0.73145 0.24752,1.48649 0.40625,2.0625 0.13645,0.49836 0.23415,0.7408 0.28125,0.90625 l 0,0.125 c 0,0.0545 -0.0261,0.05 -0.0625,0.0937 -0.02,0.0109 0.02,0.0625 0,0.0625 -0.0453,0.0346 -0.0999,0.0625 -0.15625,0.0625 -0.11101,0.007 -0.19778,-0.0334 -0.3125,-0.0625 -0.0782,-0.0181 -0.17995,-0.0807 -0.15625,-0.0625 -0.0363,-0.0218 -0.1013,-0.0243 -0.125,-0.0625 0,0.0146 0.0219,0.0143 0,-0.0312 -0.0254,-0.0473 -0.0537,-0.1664 -0.0937,-0.25 -0.0891,-0.18946 -0.15908,-0.40895 -0.28125,-0.6875 -0.24381,-0.55472 -0.55754,-1.23609 -0.90625,-1.875 -0.34999,-0.64145 -0.76223,-1.22354 -1.21875,-1.625 -0.22817,-0.20054 -0.50982,-0.40155 -0.78125,-0.46875 -0.26199,-0.0655 -0.57287,-0.01 -0.84375,0.125 -0.69997,0.38836 -1.09619,1.02422 -1.25,1.6875 -0.15456,0.67346 -0.0815,1.44899 0.0312,2.125 0.11454,0.67454 0.29189,1.23077 0.40625,1.6875 0.049,0.19254 0.1087,0.37235 0.125,0.46875 0,0.0955 -0.0389,0.3448 -0.0625,0.4375 -0.11818,0.40928 -0.40559,1.09375 -0.40625,1.09375 0,0 -5.45294,14.48293 6.25,13.46875 0.0964,-0.007 0.31535,-0.0625 0.40625,-0.0625 2.29827,-0.46272 4.47308,-1.15769 6.40625,-1.9375 0.3798,-0.182 0.87805,-0.36282 1.4375,-0.625 1.11885,-0.52418 2.52451,-1.19587 3.875,-1.9375 1.35103,-0.74219 2.60454,-1.533 3.5625,-2.375 0.9596,-0.84327 1.65997,-1.76731 1.53125,-2.6875 -0.20364,-1.48345 -1.18879,-2.58587 -2.5,-3.4375 -1.31613,-0.85473 -2.95728,-1.44464 -4.59375,-1.875 -1.63576,-0.43018 -3.2241,-0.78002 -4.4375,-0.96875 -0.60652,-0.0945 -1.1749,-0.122 -1.53125,-0.1875 -0.10544,-0.0181 -0.16175,-0.0443 -0.21875,-0.0625 -0.0307,-0.004 -0.0334,-0.0131 -0.0625,-0.0312 -0.0363,-0.0218 -0.1031,-0.0243 -0.125,-0.0625 -0.02,-0.0363 0,-0.0832 0,-0.125 0,-0.0163 -1.7e-4,-0.0407 0,-0.0625 l 0,-0.90625 c -0.02,-0.748 -0.064,-1.73553 -0.21875,-2.65625 -0.15637,-0.92455 -0.39754,-1.80879 -0.90625,-2.40625 -0.30235,-0.35545 -0.73038,-0.5887 -1.25,-0.625 -0.15636,-0.0182 -0.3311,-0.0309 -0.5,0 z" id="path3302" style="fill:#79b150;fill-opacity:1;stroke:none"/></g></g><g id="g4055" transform="matrix(0.58251751,0,0,0.58251751,1129.8651,-1645.0549)"><g id="g4045" style="fill:#000000;fill-opacity:1" transform="translate(339.84377,0)"><path d="m -1670.3125,3208.875 c -46.1676,0 -83.5937,37.4262 -83.5937,83.5938 0,46.1675 37.4261,83.5937 83.5937,83.5937 46.1676,0 83.5937,-37.4262 83.5937,-83.5937 0,-46.1676 -37.4261,-83.5938 -83.5937,-83.5938 z m 0,25 c 32.3604,0 58.5937,26.2333 58.5937,58.5938 0,32.3604 -26.2333,58.5937 -58.5937,58.5937 -32.3604,0 -58.5937,-26.2333 -58.5937,-58.5937 0,-32.3605 26.2333,-58.5938 58.5937,-58.5938 z" id="path4034" style="fill:#000000;fill-opacity:1;fill-rule:nonzero;stroke:none"/><path d="m -1642.9689,3299.5002 c 0,15.1016 -12.2422,27.3438 -27.3437,27.3438 -15.1016,0 -27.3438,-12.2422 -27.3438,-27.3438 0,-15.1015 12.2422,-27.3437 27.3438,-27.3437 15.1015,0 27.3437,12.2422 27.3437,27.3437 z" id="path4041" style="fill:#000000;fill-opacity:1;fill-rule:nonzero;stroke:none" transform="matrix(1.0285714,0,0,1.0285714,47.723292,-101.30284)"/></g><g id="g4049" style="fill:#000000;fill-opacity:1" transform="translate(4.7424108e-6,0)"><path d="m -1670.3125,3208.875 c -46.1676,0 -83.5937,37.4262 -83.5937,83.5938 0,46.1675 37.4261,83.5937 83.5937,83.5937 46.1676,0 83.5937,-37.4262 83.5937,-83.5937 0,-46.1676 -37.4261,-83.5938 -83.5937,-83.5938 z m 0,25 c 32.3604,0 58.5937,26.2333 58.5937,58.5938 0,32.3604 -26.2333,58.5937 -58.5937,58.5937 -32.3604,0 -58.5937,-26.2333 -58.5937,-58.5937 0,-32.3605 26.2333,-58.5938 58.5937,-58.5938 z" id="path4051" style="fill:#000000;fill-opacity:1;fill-rule:nonzero;stroke:none"/><path d="m -1642.9689,3299.5002 c 0,15.1016 -12.2422,27.3438 -27.3437,27.3438 -15.1016,0 -27.3438,-12.2422 -27.3438,-27.3438 0,-15.1015 12.2422,-27.3437 27.3438,-27.3437 15.1015,0 27.3437,12.2422 27.3437,27.3437 z" id="path4053" style="fill:#000000;fill-opacity:1;fill-rule:nonzero;stroke:none" transform="matrix(1.0285714,0,0,1.0285714,47.723292,-101.30284)"/></g><path d="m -1693.8125,3464.4444 c -74.1138,-10.1174 -134.6268,-68.6365 -147.3408,-142.486 -3.4485,-20.031 -3.0643,-43.5849 1.0439,-64 3.8895,-19.3284 14.0836,-43.7056 25.367,-60.6601 l 6.0373,-9.0717 -3.5919,-10.3841 c -6.1945,-17.9086 -14.4999,-33.6383 -25.2522,-47.8255 l -2.3181,-3.0586 117.9731,0 2.1369,-3.4576 c 1.1753,-1.9017 5.3544,-6.4366 9.2869,-10.0774 38.4845,-35.6307 116.8503,-54.1407 220.7393,-52.1385 58.3673,1.1249 104.7295,8.3151 141,21.8675 26.1387,9.7666 41.5835,19.0535 56,33.6725 l 9.5,9.6335 117.6772,0.5615 -3.6718,4.0642 c -7.8369,8.6745 -16.5533,24.6327 -23.5136,43.0493 l -3.2786,8.6751 3.0153,3.8249 c 5.9679,7.5705 14.4782,21.5007 19.2927,31.5795 42.73,89.4512 1.4525,196.4906 -90.5055,234.6956 -49.752,20.6701 -107.8453,16.4587 -154.2478,-11.1821 -13.4693,-8.0234 -29.1854,-20.6225 -38.4204,-30.8005 -5.6888,-6.2696 -7.5005,-7.72 -8.4068,-6.7297 l -33.3046,54.7159 -38.371,-53.309 c -0.4705,-0.733 -2.7311,1.0851 -6.2853,5.0552 -43.4164,45.5566 -100.3721,60.0106 -150.5612,53.7861 z m 43.5814,-34.0025 c 59.2167,-8.9102 105.3577,-53.0948 117.1821,-112.2136 2.7142,-13.5702 2.4495,-39.5957 -0.5406,-53.1504 -6.5614,-29.7441 -19.266,-52.503 -40.8399,-73.1601 -26.5656,-25.4367 -58.8233,-38.3424 -95.8016,-38.3286 -38.3854,0.014 -70.6055,13.42 -98.0943,40.8134 -20.8084,20.7362 -33.3069,44.1584 -39.051,73.1818 -2.6193,13.2343 -2.3807,38.5695 0.4902,52.0624 7.9532,37.3782 28.6564,68.1694 60.0154,89.2586 9.1043,6.1227 27.1466,14.5033 37.678,17.5012 19.0556,5.4244 40.1396,6.8675 58.9617,4.0353 z m 340,0 c 39.3422,-5.9055 73.8948,-27.8109 96.198,-60.9871 9.3793,-13.9517 16.2505,-30.6357 20.4621,-49.684 3.2021,-14.4826 3.2092,-39.6346 0.015,-54.5044 -6.0917,-28.3621 -17.6604,-49.7189 -38.1636,-70.4534 -16.8259,-17.0157 -33.9124,-27.6663 -55.7559,-34.7545 -27.3351,-8.8703 -58.1769,-8.8703 -85.512,0 -34.1103,11.0688 -64.2035,36.4162 -80.6085,67.8963 -20.897,40.0997 -21.2735,86.932 -1.0231,127.2276 20.1138,40.0236 59.0562,68.3447 103.3876,75.1891 12.1005,1.8683 28.8314,1.897 41,0.07 z m -180.4118,-189.3456 c 4.4311,-12.1987 13.8004,-31.0672 20.6774,-41.6415 27.008,-41.5285 65.9173,-65.3081 113.7164,-69.4984 6.567,-0.5757 15.3326,-0.7832 19.4791,-0.461 l 7.5389,0.5857 -4,-3.5999 c -5.9289,-5.3359 -18.7989,-13.6602 -29,-18.7572 -24.4288,-12.206 -52.2446,-20.0683 -86.586,-24.4741 -19.7269,-2.5308 -79.7553,-2.505 -99.414,0.043 -43.6134,5.6524 -77.2805,16.8693 -103.6508,34.5332 -5.692,3.8128 -11.4742,8.1623 -12.8492,9.6655 l -2.5,2.7332 7.5,-0.6359 c 9.2124,-0.781 27.2391,0.7462 38.9328,3.2984 26.5966,5.8048 49.363,17.8645 68.8031,36.4459 22.0055,21.0335 36.8683,45.563 48.4117,79.8984 l 5.2811,15.7084 2.2602,-7.601 c 1.2432,-4.1806 3.6728,-11.4897 5.3993,-16.2425 z" id="path3264" style="fill:#000000;fill-opacity:1"/></g></svg>